<svg width="78" height="78" viewBox="0 0 78 78" fill="none" xmlns="http://www.w3.org/2000/svg">
<path d="M63.6792 6.7704L47.0028 23.4468L44.3508 26.1144V22.3392V1.56H33.6492V22.3392V26.1144L30.9972 23.4468L14.352 6.7704L6.8016 14.3364L23.4312 30.966L26.0988 33.6336H22.3236H1.56V44.3352H22.3236H26.0832L23.4312 46.9872L6.8016 63.6636L14.352 71.2296L28.5324 57.018V30.0768V28.5168H30.0924H57.018L71.2296 14.3208L63.6792 6.7704Z" fill="#040000"/>
<path d="M63.6792 4.5552L45.9108 22.3392V0H32.1048V22.3392L14.352 4.5552L4.5864 14.3364L22.3236 32.0892H0V45.8952H22.3236L4.5864 63.6636L14.352 73.4292L30.0924 57.642V30.0768H57.6576L73.4448 14.3364L63.6792 4.5552ZM30.0924 28.5168H28.5324V30.0768V57.018L14.352 71.2296L6.786 63.6636L23.4312 46.9872L26.0832 44.3196H22.3236H1.56V33.6336H22.3236H26.0832L23.4156 30.966L6.8016 14.3364L14.352 6.7704L30.9816 23.4468L33.6492 26.1144V22.3392V1.56H44.3352V22.3392V26.0988L47.0028 23.4312L63.6792 6.7704L71.2452 14.3364L57.0336 28.5324H30.0924V28.5168Z" fill="white"/>
<path d="M78 45.8952H55.6764L73.4448 63.6636L63.6792 73.4448L45.9108 55.6608V78H32.0892V32.0736H78V45.8952Z" fill="#0045FF"/>
</svg>
